/* XPM */
static char *fcf7998542f440a6a9dee6be26e97278LxXOZ2WvHWWMRfRr[] = {
/* columns rows colors chars-per-pixel */
"48 48 93 2 ",
"   c black",
".  c #060700",
"X  c #000007",
"o  c #00000C",
"O  c #1E130D",
"+  c #000012",
"@  c #0D0010",
"#  c #080E13",
"$  c #001310",
"%  c #111414",
"&  c #161614",
"*  c #1A1514",
"=  c #16151A",
"-  c #341F13",
";  c #36310D",
":  c #393015",
">  c #232222",
",  c #2B2F2F",
"<  c gray19",
"1  c #412E19",
"2  c #6B3A0C",
"3  c #623E1B",
"4  c #5A3E25",
"5  c #3B5C2B",
"6  c #734A11",
"7  c #70441B",
"8  c #704E1B",
"9  c #6A4C2C",
"0  c #6F5937",
"q  c #494949",
"w  c #830E15",
"e  c #AA0005",
"r  c #AC3517",
"t  c #E0000E",
"y  c #E1242E",
"u  c #894F1D",
"i  c #8C601A",
"p  c #885223",
"a  c #AE4425",
"s  c #8B6035",
"d  c #AB6122",
"f  c #AD6024",
"g  c #A6642D",
"h  c #AB622A",
"j  c #A16532",
"k  c #C44A34",
"l  c #EE4C27",
"z  c #F35E3E",
"x  c #AB7643",
"c  c #6EC73D",
"v  c #6DC83C",
"b  c #439646",
"n  c #4E954D",
"m  c #50A641",
"M  c #6AA646",
"N  c #78C84C",
"B  c #BEA43D",
"V  c #C99314",
"C  c #E4901D",
"Z  c #ED9418",
"A  c #F89B14",
"S  c #FFA200",
"D  c #FFA400",
"F  c #FFAA14",
"G  c #D38D22",
"H  c #DD8729",
"J  c #D48736",
"K  c #D78932",
"L  c #E08C22",
"P  c #F4A222",
"I  c #F5AD31",
"U  c #F7D73E",
"Y  c #948351",
"T  c #BBA353",
"R  c #D89043",
"E  c #F2B54F",
"W  c #F0BE4F",
"Q  c #F7BC5E",
"!  c #82CB60",
"~  c #DCC359",
"^  c #F8D547",
"/  c #F8D270",
"(  c #FDE066",
")  c #A5A5A5",
"_  c gray74",
"`  c #E6C69C",
"'  c #FDE09F",
"]  c #F2D6AE",
"[  c #F7DCB5",
"{  c #F5E5B5",
"}  c #F9E1B4",
"|  c #FCE2C2",
" . c white",
/* pixels */
"` ` ` [ [ [ [ [ ] ] ] ] ] [ [ [ ` ` ` | | [ [ [ | | | ] ] ` ` ` [ [ [ | | [ [ [ [ [ [ | | ` ` ` ",
"` ` ` [ [ [ [ [ ] ] ] ] ] [ [ [ ` ` ` | | [ [ [ | | | ] ] ` ` ` [ [ [ | | [ [ [ [ [ [ | | ` ` ` ",
"` ` ` [ [ [ [ [ ] ] ] ] ] [ [ [ ` ` ` | | [ [ [ | | | ] ] ` ` ` [ [ [ | | [ [ [ [ [ [ | | ` ` ` ",
"` ` ` [ [ | | | ] ] ] ] ] | | | ` ` ` | | ] ] ] | | | [ [ ` ` ` [ [ [ | | [ [ [ [ [ [ | | ` ` ` ",
"` ` ` [ [ | | | ] ] ] ] ] | | | ` ` ` | | ] ] ] | | | [ [ ` ` ` [ [ [ | | [ [ [ [ [ [ | | ` ` ` ",
"` ` ` [ [ | | | ] ] ] ] ] | | | ` ` ` | | ] ] ] | | | [ [ ` ` ` [ [ [ | | [ [ [ [ [ [ | | ` ` ` ",
"` ` ` [ [ | | | ] ] ] ] ] | | | ` ` ` | | ] ] ] | | | [ [ ` ` ` [ [ [ | | ] ] ] ] ] ] | | ` ` ` ",
"` ` ` [ [ | | | ] ] ] ] ] | | | ` ` ` | | ] ] ] | | | [ [ ` ` ` [ [ [ | | ] ] ] ] ] ] | | ` ` ` ",
"` ` ` [ [ | | | ] ] ] ] ] | | | ` ` ` | | ] ] ] [ [ [ [ [ ` ` ` [ [ [ | | ] ] ] ] ] ] [ [ ` ` ` ",
"` ` ` [ [ | | | ] ] ] ] ] | | | ` ` ` | | ] ] ] [ [ [ [ [ ` ` ` [ [ [ | | ] ] ] ] ] ] [ [ ` ` ` ",
"` ` ` [ [ | | | ] ] ] ] ] | | | ` ` ` = = = = = = = = = = & ` ` [ [ [ | | ] ] ] ] ] ] [ [ ` ` ` ",
"` ` ` ] ] | | | [ [ [ [ [ | | | _ & % S S S S D S S S S S S % = _ [ [ [ [ ] ] ] ] ] ] [ [ ` ` ` ",
"` ` ` ] ] | | | [ [ [ [ [ |     6 S D S S S S ' E S D K S D D D 6 .   [ [ ] ] ] ] ] ] [ [ ` ` ` ",
"` ` ` ] ] | | | [ [ [ [ [   F S D S S S S S S S S S S S S K S S S S D   [ ] ] ] ] ] ] [ [ ` ` ` ",
"` ` ` ] ] [ [ [ [ [ [ [ q V S W Q D S S S S S S S S S S S A L L A S S G q ] ] ] ] ] ] [ [ ` ` ` ",
"` ` ` ] ] [ [ [ [ [ [ ) 9 Z S E W S S S S S S S S S S S S S C J C A S S i ) ] ] ] ] ] [ [ ` ` ` ",
"` ` ` ] ] [ [ [ [ [ [ = J L S S S S S S S S I S S S S S S S S H H L A P S & ] ] ] ] ] [ [ ` ` ` ",
"` ` ` ] ] [ [ [ [ [ [ X K D S S S S S S S D ' F S S S S S S S S C K H } S   [ [ [ [ [ | | ` ` ` ",
"` ` ` ] ] [ [ [ [ [ & J S D S S S S S S S S S S S S S S S S S S S A J S S S = [ [ [ [ | | ` ` ` ",
"` ` ` ] ] [ [ [ [ [ & J J K S S S S S S S S S S S S S { F S S S S S S J J S = [ [ [ [ | | ` ` ` ",
"` ` ` ] ] [ [ [ | | & J S S S S S S S J J J J J P S S S S S S S S S S S S D & [ [ [ [ | | ` ` ` ",
"` ` ` ] ] [ [ [ | | | & K J J J J J J R J J J J J J J J J R J J J J J g K & [ [ [ [ [ | | ` ` ` ",
"` ` ` ] ] [ [ [ | | | | < > < & > & > < < > & < & < & < = . > > = = < & = [ [ [ [ [ [ | | ` ` ` ",
"` ` ` [ [ [ [ [ | | | | > z t e e t e y y z r l r l r l l r k z l a z e   [ [ [ [ [ [ | | ` ` ` ",
"` ` ` [ [ [ [ [ | | | # 7 p g - 0 B B B ( T ( T T / . 1 4 % t & s p p 7 > [ [ [ [ [ [ | | ` ` ` ",
"` ` ` [ [ ] ] ] | | , p d d h j 9 ; U ^ ^ ^ ^ ^ B : 4 g g % t % p u 7 2 4 < [ [ [ [ [ | | ` ` ` ",
"` ` ` [ [ ] ] ] | | & u u u d d p 3 Y ^ ^ ^ ^ ^ 0 1 3 d d 3 w 9 u g p p u & [ [ [ [ [ | | ` ` ` ",
"` ` ` [ [ ] ] ] | | & 7 7 7 h d d d - ^ U ^ ^ ~ 1 3 2 d d d 1 d d d d f d & [ [ [ [ [ | | ` ` ` ",
"` ` ` [ [ ] ] ] | |   j g g g j g g g ( U ^ ( O 3 3 g g g g g g g g g g j   [ [ [ [ [ | | ` ` ` ",
"` ` ` [ [ ] ] ] | |  .@ v v v v v v v v = & n b v v v v v v v v v v v v = @ [ [ [ [ [ | | ` ` ` ",
"` ` ` [ [ ] ] ] | | & v b b = M v v v v b b b N v v v c v v c v m b b b v v & [ [ [ [ | | ` ` ` ",
"` ` ` [ [ ] ] ] | | & b b @ H 9 5 v c & = = & ! M % = = = n * = & * = b c v & [ [ [ [ | | ` ` ` ",
"` ` ` [ [ ] ] ] | | | & & S H J x = & J J J o = 8 S S S S * D S S A J & & & [ [ [ [ [ | | ` ` ` ",
"` ` ` [ [ ] ] ] | | | & S S S S S S S S S J K K C D S S S S S S S S S K & [ [ [ [ [ [ | | ` ` ` ",
"` ` ` [ [ ] ] ] [ [ [ $ D S S S S S S S S S S S S S S S S S J J J J J J & [ [ [ [ [ [ [ [ ` ` ` ",
"` ` ` [ [ ] ] ] [ [ [ [ [   o o o o o o o o + o X X X X X X X X X X X [ [ [ [ [ [ [ [ [ [ ` ` ` ",
"` ` ` [ [ ] ] ] [ [ [ [ [ [ [ [ ` ` ` | | ] ] ] [ [ [ [ [ ` ` ` ] ] ] [ [ [ [ [ [ [ [ [ [ ` ` ` ",
"` ` ` | | ] ] ] [ [ [ [ [ ] ] ] ` ` ` | | ] ] ] [ [ [ ] ] ` ` ` ] ] ] [ [ ] ] ] ] ] ] [ [ ` ` ` ",
"` ` ` | | ] ] ] [ [ [ [ [ ] ] ] ` ` ` | | ] ] ] [ [ [ ] ] ` ` ` ] ] ] [ [ ] ] ] ] ] ] [ [ ` ` ` ",
"` ` ` | | ] ] ] [ [ [ [ [ ] ] ] ` ` ` | | ] ] ] [ [ [ ] ] ` ` ` ] ] ] [ [ ] ] ] ] ] ] [ [ ` ` ` ",
"` ` ` | | [ [ [ [ [ [ [ [ ] ] ] ` ` ` [ [ ] ] ] [ [ [ ] ] ` ` ` ] ] ] [ [ ] ] ] ] ] ] | | ` ` ` ",
"` ` ` | | [ [ [ [ [ [ [ [ ] ] ] ` ` ` [ [ ] ] ] [ [ [ ] ] ` ` ` ] ] ] [ [ ] ] ] ] ] ] | | ` ` ` ",
"` ` ` | | [ [ [ [ [ [ [ [ ] ] ] ` ` ` [ [ [ [ [ [ [ [ ] ] ` ` ` [ [ [ [ [ ] ] ] ] ] ] | | ` ` ` ",
"` ` ` | | [ [ [ [ [ [ [ [ ] ] ] ` ` ` [ [ [ [ [ [ [ [ ] ] ` ` ` [ [ [ [ [ ] ] ] ] ] ] | | ` ` ` ",
"` ` ` | | [ [ [ [ [ [ [ [ ] ] ] ` ` ` [ [ [ [ [ [ [ [ ] ] ` ` ` [ [ [ [ [ ] ] ] ] ] ] | | ` ` ` ",
"` ` ` | | [ [ [ ] ] ] ] ] [ [ [ ` ` ` [ [ [ [ [ | | | ] ] ` ` ` [ [ [ | | [ [ [ [ [ [ | | ` ` ` ",
"` ` ` | | [ [ [ ] ] ] ] ] [ [ [ ` ` ` [ [ [ [ [ | | | ] ] ` ` ` [ [ [ | | [ [ [ [ [ [ | | ` ` ` ",
"` ` ` | | [ [ [ ] ] ] ] ] [ [ [ ` ` ` [ [ [ [ [ | | | ] ] ` ` ` [ [ [ | | [ [ [ [ [ [ | | ` `  ."
};
