/* XPM */
static char *_a62c8eef88e4d09feda22ac6d380663nCuHbZ48Sh1G0b7B[] = {
/* columns rows colors chars-per-pixel */
"48 48 62 1 ",
"  c #3F1717",
". c #3D1810",
"X c #321F1B",
"o c #361C1B",
"O c #341F1C",
"+ c #3B1D1B",
"@ c #381E1D",
"# c #2F2519",
"$ c #33221B",
"% c #35201B",
"& c #312519",
"* c #33211F",
"= c #35201F",
"- c #361F27",
"; c #301E2A",
": c #362022",
"> c #382322",
", c #591D12",
"< c #591F14",
"1 c #5A1518",
"2 c #6A180C",
"3 c #601C11",
"4 c #63181D",
"5 c #5A2014",
"6 c #5F1826",
"7 c #571D2B",
"8 c #651925",
"9 c #631B29",
"0 c #651828",
"q c #4E2426",
"w c #4C292F",
"e c #5D2820",
"r c #552428",
"t c #DA6D50",
"y c #D76E58",
"u c #D66F5C",
"i c #DF6C59",
"p c #DF6B5E",
"a c #D86F5C",
"s c #D86E5E",
"d c #CD725F",
"f c #D1725C",
"g c #D3715E",
"h c #D6715F",
"j c #D96D61",
"k c #D46F6A",
"l c #EDB67E",
"z c #E9B083",
"x c #EEB683",
"c c #F1B583",
"v c #E6C69C",
"b c #F2D6AE",
"n c #F7DCB5",
"m c #D9CBCA",
"M c #DBD1D0",
"N c #FCE2C2",
"B c #E6ECEA",
"V c #F1F2ED",
"C c gray95",
"Z c #F8F4F3",
"A c #F6FBF5",
"S c #FFFCFE",
/* pixels */
"vvvnnnnnbbbbbnnnvvvNNnnnNNNbbvvvnnnNNnnnnnnNNvvv",
"vvvnnnnnbbbbbnnnvvvNNnnnNNNbbvvvnnnNNnnnnnnNNvvv",
"vvvnnnnnbbbbbnnnvvvNNnnnNNNbbvvvnnnNNnnnnnnNNvvv",
"vvvnnNNNbbbbbNNNvvvNNbbbNNNnnvvvnnnNNnnnnnnNNvvv",
"vvvnnNNNbbbbbNNNvvvNNbbbNNNnnvvvnnnNNnnnnnnNNvvv",
"vvvnnNNNbbbbCVVVVVVVVVVVVVVVVVVVVVVANnnnnnnNNvvv",
"vvvnnNNNbbbbM======================mNbbbbbbNNvvv",
"vvvnnNNNbbbbM=$=*****************:=mNbbbbbbNNvvv",
"vvvnnNNNbbbbM=@0lllllllllllllllll-=mNbbbbbbnnvvv",
"vvvnnNNNbbbbM=@9uuuuuuuuuuuuuuuhc:=mNbbbbbbnnvvv",
"vvvnnNNNbbbbM=@9ssssssssssssssshx:=mNbbbbbbnnvvv",
"vvvbbNNNnnnnM=@9su4>&&&&&&&#.1shx:=mnbbbbbbnnvvv",
"vvvbbNNNnnnnM=@9spr5,,,,,,,,e7shx:=mnbbbbbbnnvvv",
"vvvbbNNNnnnnM=@9sg%dssssssssk:shx:=mnbbbbbbnnvvv",
"vvvbbnnnnnnnM=@9sg%dssssssssk:shx:=mnbbbbbbnnvvv",
"vvvbbnnnnnnnM=@9sg%dssssssssk:shx:=mnbbbbbbnnvvv",
"vvvbbnnnnnnnM=@9sg%dssssssssk:shx:=mnbbbbbbnnvvv",
"vvvbbnnnnnnnM=@9sg%dssssssssk:shx:=mnnnnnnnNNvvv",
"vvvbbnnnnnnnM=@9sg%dssssssssk:shx:=mnnnnnnnNNvvv",
"vvvbbnnnnnnnM=@9sg%dssssssssk:shx:=mnnnnnnnNNvvv",
"vvvbbnnnNNNNM=@9sg%dssssssssk:shx:=mbnnnnnnNNvvv",
"vvvbbnnnNNNNM=@9sg%dssssssssk:sgz*=mbnnnnnnNNvvv",
"vvvbbnnnNNNNM=@9sg%dssssssssk:su@==mbnnnnnnNNvvv",
"vvvnnnnnNNNNM=@9sg%dssssssssk:su@==mbnnnnnnNNvvv",
"vvvnnnnnNNNNM=@9sg%dssssssssk:syO+=mbnnnnnnNNvvv",
"vvvnnbbbNNNNM=@9sg%dssssssssk:ssS==mbnnnnnnNNvvv",
"vvvnnbbbNNNNM=@9sg%dssssssssk:suo%=mbnnnnnnNNvvv",
"vvvnnbbbNNNNM=@9sg%dssssssssk:su@==mbnnnnnnNNvvv",
"vvvnnbbbNNNNM=@9sg%dssssssssk:su@==mnnnnnnnNNvvv",
"vvvnnbbbNNNNM=@9sg%dssssssssk:st;X=mnnnnnnnNNvvv",
"vvvnnbbbNNNNM=@9sg%dssssssssk:shx:=mnnnnnnnNNvvv",
"vvvnnbbbNNNNM=@9sg%dssssssssk:shx:=mnnnnnnnNNvvv",
"vvvnnbbbNNNNM=@9sg%dssssssssk:shx:=mnnnnnnnNNvvv",
"vvvnnbbbNNNNM=@9sg%dssssssssk:shx:=mnnnnnnnNNvvv",
"vvvnnbbbnnnnM=@9sg%dssssssssk:shx:=mnnnnnnnnnvvv",
"vvvnnbbbnnnnM=@9sgq<333333332wshx:=mnnnnnnnnnvvv",
"vvvnnbbbnnnnM=@9su8+%%%%%%%+ 6shx:=mnnnnnnnnnvvv",
"vvvNNbbbnnnnM=@9sssgggggggggijshx:=mnbbbbbbnnvvv",
"vvvNNbbbnnnnM=@9ssssssssssssssshx:=mnbbbbbbnnvvv",
"vvvNNbbbnnnnM=@888888888888888888*=mnbbbbbbnnvvv",
"vvvNNnnnnnnnM=$==================*=mnbbbbbbNNvvv",
"vvvNNnnnnnnnM======================mnbbbbbbNNvvv",
"vvvNNnnnnnnnCZZZZZZZZZZZZZZZZZZZZZZBnbbbbbbNNvvv",
"vvvNNnnnnnnnnbbbvvvnnnnnnnnbbvvvnnnnnbbbbbbNNvvv",
"vvvNNnnnnnnnnbbbvvvnnnnnnnnbbvvvnnnnnbbbbbbNNvvv",
"vvvNNnnnbbbbbnnnvvvnnnnnNNNbbvvvnnnNNnnnnnnNNvvv",
"vvvNNnnnbbbbbnnnvvvnnnnnNNNbbvvvnnnNNnnnnnnNNvvv",
"vvvNNnnnbbbbbnnnvvvnnnnnNNNbbvvvnnnNNnnnnnnNNvvv"
};
