/* XPM */
static char *_3bc4726d0aa4a8e8e362b43112fdfa73iEYeB3cIkxvBvIX[] = {
/* columns rows colors chars-per-pixel */
"48 48 4 1 ",
"  c #E6C69C",
". c #F2D6AE",
"X c #F7DCB5",
"o c #FCE2C2",
/* pixels */
"   XXXXX.....XXX   ooXXXooo..   XXXooXXXXXXoo   ",
"   XXXXX.....XXX   ooXXXooo..   XXXooXXXXXXoo   ",
"   XXXXX.....XXX   ooXXXooo..   XXXooXXXXXXoo   ",
"   XXooo.....ooo   oo...oooXX   XXXooXXXXXXoo   ",
"   XXooo.....ooo   oo...oooXX   XXXooXXXXXXoo   ",
"   XXooo.....ooo   oo...oooXX   XXXooXXXXXXoo   ",
"   XXooo.....ooo   oo...oooXX   XXXoo......oo   ",
"   XXooo.....ooo   oo...oooXX   XXXoo......oo   ",
"   XXooo.....ooo   oo...XXXXX   XXXoo......XX   ",
"   XXooo.....ooo   oo...XXXXX   XXXoo......XX   ",
"   XXooo.....ooo   oo...XXXXX   XXXoo......XX   ",
"   ..oooXXXXXooo   XX...XXXoo   XXXXX......XX   ",
"   ..oooXXXXXooo   XX...XXXoo   XXXXX......XX   ",
"   ..oooXXXXXooo   XX...XXXoo   XXXXX......XX   ",
"   ..XXXXXXXXooo   XX...XXXoo   oooXX......XX   ",
"   ..XXXXXXXXooo   XX...XXXoo   oooXX......XX   ",
"   ..XXXXXXXXooo   XX...XXXoo   oooXX......XX   ",
"   ..XXXXXXXXXXX   XX...XXXoo   oooXXXXXXXXoo   ",
"   ..XXXXXXXXXXX   XX...XXXoo   oooXXXXXXXXoo   ",
"   ..XXXXXXXXXXX   XX...XXXoo   oooXXXXXXXXoo   ",
"   ..XXXoooooXXX   XXXXXoooXX   ooo..XXXXXXoo   ",
"   ..XXXoooooXXX   XXXXXoooXX   ooo..XXXXXXoo   ",
"   ..XXXoooooXXX   XXXXXoooXX   ooo..XXXXXXoo   ",
"   XXXXXoooooXXX   XXXXXoooXX   XXX..XXXXXXoo   ",
"   XXXXXoooooXXX   XXXXXoooXX   XXX..XXXXXXoo   ",
"   XX...oooooXXX   XX...oooXX   XXX..XXXXXXoo   ",
"   XX...oooooXXX   XX...oooXX   XXX..XXXXXXoo   ",
"   XX...oooooXXX   XX...oooXX   XXX..XXXXXXoo   ",
"   XX...oooooXXX   XX...oooXX   XXXXXXXXXXXoo   ",
"   XX...oooooXXX   XX...oooXX   XXXXXXXXXXXoo   ",
"   XX...oooooXXX   XX...oooXX   XXXXXXXXXXXoo   ",
"   XX...oooooXXX   XX...oooXX   XXXXXXXXXXXoo   ",
"   XX...oooooXXX   XX...oooXX   XXXXXXXXXXXoo   ",
"   XX...oooooXXX   XX...oooXX   XXXXXXXXXXXoo   ",
"   XX...XXXXXXXX   oo...XXXXX   ...XXXXXXXXXX   ",
"   XX...XXXXXXXX   oo...XXXXX   ...XXXXXXXXXX   ",
"   XX...XXXXXXXX   oo...XXXXX   ...XXXXXXXXXX   ",
"   oo...XXXXX...   oo...XXX..   ...XX......XX   ",
"   oo...XXXXX...   oo...XXX..   ...XX......XX   ",
"   oo...XXXXX...   oo...XXX..   ...XX......XX   ",
"   ooXXXXXXXX...   XX...XXX..   ...XX......oo   ",
"   ooXXXXXXXX...   XX...XXX..   ...XX......oo   ",
"   ooXXXXXXXX...   XXXXXXXX..   XXXXX......oo   ",
"   ooXXXXXXXX...   XXXXXXXX..   XXXXX......oo   ",
"   ooXXXXXXXX...   XXXXXXXX..   XXXXX......oo   ",
"   ooXXX.....XXX   XXXXXooo..   XXXooXXXXXXoo   ",
"   ooXXX.....XXX   XXXXXooo..   XXXooXXXXXXoo   ",
"   ooXXX.....XXX   XXXXXooo..   XXXooXXXXXXoo   "
};
