/* XPM */
static char *f8aa7a516a5c4eeb8e39bb0ae19422c9Os0yOuKmMnSHDPmq[] = {
/* columns rows colors chars-per-pixel */
"48 48 100 2 ",
"   c #6F3E23",
".  c #70411F",
"X  c #6F4121",
"o  c #744324",
"O  c #784626",
"+  c #744A26",
"@  c #7C4D27",
"#  c #764A29",
"$  c #7B4D2B",
"%  c #7C502D",
"&  c #7E4F30",
"*  c #7F5031",
"=  c #804F2B",
"-  c #81522C",
";  c #824F30",
":  c #845432",
">  c #885635",
",  c #865935",
"<  c #8A5D36",
"1  c #885E3A",
"2  c #8D6037",
"3  c #8D643D",
"4  c #90653F",
"5  c #8D6640",
"6  c #8C6942",
"7  c #966440",
"8  c #986642",
"9  c #916943",
"0  c #9B6940",
"q  c #966F49",
"w  c #9F6E48",
"e  c #95714B",
"r  c #99734B",
"t  c #9E794E",
"y  c #9D7950",
"u  c #A4734B",
"i  c #A0794E",
"p  c #A17A52",
"a  c #A58052",
"s  c #AE8554",
"d  c #AC8A57",
"f  c #B18654",
"g  c #B68B57",
"h  c #B98C55",
"j  c #B4875A",
"k  c #B58C5A",
"l  c #BA8F5A",
"z  c #BD925B",
"x  c #BD9364",
"c  c #C0935B",
"v  c #C79A5E",
"b  c #C9995E",
"n  c #C19666",
"m  c #C59A61",
"M  c #C99A60",
"N  c #CB9D62",
"B  c #CC9D62",
"V  c #CC9D64",
"C  c #C79968",
"Z  c #C59C6A",
"A  c #CC9F6A",
"S  c #C99E6D",
"D  c #CD9E6F",
"F  c #CDA063",
"G  c #CDA065",
"H  c #CEA36A",
"J  c #D3A567",
"K  c #D0A369",
"L  c #D1A26B",
"P  c #D1A46B",
"I  c #D6A76A",
"U  c #D2A36D",
"Y  c #CFA371",
"T  c #D2A472",
"R  c #D3AA70",
"E  c #D6A873",
"W  c #D5AA75",
"Q  c #DBAC73",
"!  c #D9AE72",
"~  c #DAAB76",
"^  c #DBAD75",
"/  c #DBAC77",
"(  c #DCAF7D",
")  c #D9B179",
"_  c #DFB179",
"`  c #DFB37C",
"'  c #E2B477",
"]  c #E1B378",
"[  c #E2B57B",
"{  c #E4BB7D",
"}  c #EEBB7D",
"|  c #EFBC7C",
" . c #E5B882",
".. c #E9BA82",
"X. c #EBBE83",
"o. c #EDBD81",
"O. c #ECBE84",
"+. c #EDC087",
"@. c #F1C487",
"#. c #F0C28A",
/* pixels */
"o o $ ; ; ; ; : & &     o @ @ - - - - - - - - - - - - - - - - @ = o o o @ # : : : : : : - - o o ",
"o o $ ; ; ; ; : & &     o @ @ - - - - - - - - - - - - - - - - @ = o o o @ # : : : : : : - - o o ",
"< < D / / / / / E E - - , C C ~ ~ ~ ~ ~ ~ ~ ~ ~ ~ ~ ~ ~ ~ ~ ~ A A > > 3 j j ! ! ! ~ / / / / 0 0 ",
"3 3 c b b b b I o.o.> > 3 c c B B N N N N N N N N N N N N N N _ _ < < 9 d d b b b b b B F o.u u ",
"3 3 c b b b b I o.o.> > 3 c c B B N N N N N N N N N N N N N N _ _ < < 9 d d b b b b b F F o.u u ",
"3 3 z b b v v J } } > > 3 z z b b b b b b b b b b b b b b b b ] ] 2 < 9 s s b b b b b b b X.u u ",
"3 3 z b b v v J } } > > 3 z z b b b b b b b b b b b b b b b b ] [ < < 9 s s b b b b b B b o.u u ",
"3 3 z b b b b J | | > > 5 l l b b b b b b b b b b b b b b b b ] ] 2 2 9 s s b b b b b B B o.u u ",
"3 3 f h h h h c K K - - 5 f f h h k g g g g g g g g g g g h h C C , , 9 a a h h h h h z z ..u u ",
"3 3 f h h h h c K K - - 5 f f h h g g g g g g g g g g g g h g C C , , 9 a a h h h h h z z ..u u ",
"3 3 r r r r r r e e + + 3 r r r e e r r e r r r e e e r r r e 6 6 + + 6 e e e e e e e i i ( u u ",
"3 3 * * * @ @ @ @ * + + * * * * * % @ @ @ @ @ @ @ @ @ @ @ @ * * * + + * @ @ @ * : : @ @ @ @ # # ",
"o o @ - - - - - = = @ @ @ = = @ % % % % @ @ o + + @ % % - - - % % @ @ # # # = = @ # # # # # O O ",
"< < S W W W W W W W W W W W W W W W ~ ~ S S - < < k ~ ~ W W W W ~ ~ W W W W W W W W W W W ~ 8 8 ",
"< < S W W W W W W W W W W W W W W W ~ ~ S S - < < k ~ ~ W W W W W ~ ~ W W ~ W W W W W W W ~ 8 8 ",
"5 5 m K K K K K K K K K K K K K K K E E  . .< 9 9 k P P P P P P P P P P P P P P P P P U U +.u u ",
"5 5 m K K K K K K K K K K K K K K K E E  . .< 9 9 k P P P P P P P P P P P P P P P P P U U +.u u ",
"5 5 z v v v v v v v b b b b b b b b G G  . .< 9 9 f b b b b v v v v v v v v v v v v v N V O.u u ",
"5 5 z v v v v v v v v v v v v v v v F F { { < 9 9 f b b b b b M M b b b M M b b b M M V V O.u u ",
"5 5 z v v v v v v v v v v v v v v v F F { { < 9 9 f b b b b b M M b b b M M b b b M M V V O.u u ",
"6 6 k z c c c c c c c c c c c c c c C C { { < 9 9 s c c c c c c c c c c c c c c c c c c c _ w w ",
"6 6 k z c c c c c c c c c c c c c c C C { { < 9 9 s c c c c c c c c c c c c c c c c c c c _ w w ",
"3 3 e e e e e e e e e e e e e e e e p p ) ) , 5 5 e e e e e e e e e e e e e e e e e e e e e $ $ ",
"O O $ $ $ $ $ $ $ $ # # # % % % % % - - - - # # # $ $ $ $ $ $ @ @ + + # @ @ @ @ @ @ @ @ $ $ o o ",
"O O $ $ $ $ $ $ $ $ # # # $ $ % % % - - - - # # # $ $ $ $ $ $ @ @ + + # @ @ @ @ @ @ @ @ @ $ o o ",
", , n Y Y Y Y T D D % % , x x Y Y Y Y Y Y Y Y Y Y T T T T T T n n - - < s s K K K K K K K T 7 7 ",
"5 5 H ! ! ! ! [ #.#.> > 3 Z Z ! ! ! ! ! ! ! ! ! ! ! ! ! ! ! ! [ [ 2 2 9 k k ! ! ! ! ! / / @.u u ",
"5 5 H ! ! ! ! [ #.#.> > 3 Z Z ! ! ! ! ! ! ! ! ! ! ! ! ! ! ! ! [ [ 2 2 9 k k ! ! ! ! ! / / @.u u ",
"5 5 z b M b b I #.#.> > 5 l l m m v v v v v v v v v v v v m v [ [ 2 2 9 s s M M b b b B B X.u u ",
"5 5 z b b b b I #.#.> > 5 l l m m v v v v v v v v v v v v v v [ [ 2 2 9 s s M M b b b B B X.u u ",
"5 5 z b b b b I #.#.> > 5 h h b b v v v v v v v v v v v v v v [ [ 2 2 9 f f b b b v v B B X.u u ",
"5 5 z m m m m U #.#.> > 4 h h m m m m m m m m m m m m m m m v ` ` < < 9 s s M M M m m V V X.u u ",
"5 5 z m m m m U #.#.> > 9 h h m m m m m m m m m m m m m m m v ` ` < < 9 s s M M M M m V V X.u u ",
"5 5 r e e e e r q q # # 3 e e e e e e e e e e e e e e e e e e 9 9 - - 5 q q e e e e e e e e : : ",
"5 5 * # # # # # * * # # * * * * * * * * * # # # # # # # * * * * * - - * * # # # # # # * * * * * ",
"+ + $ $ $ $ $ $ @ @ X X # $ $ $ $ $ $ $ $ $ @ @ @ @ $ $ $ $ $ $ $ X X $ $ $ $ $ $ $ $ $ $ $ o o ",
", , C T T T T T T T T T T T T T T T T T C C : 1 1 j T T T T T T T T T T T T T T T T T T T T 7 7 ",
", , C T T T T T T T T T T T T T T T T T C C : 1 1 j T T T T T T T T T T T T T T T T T T T T 7 7 ",
"5 5 R [ [ [ [ [ [ [ [ [ [ [ [ [ [ [ [ [  . ., 9 9 n ] ] ' ' ' ' ' ' ' ' ' ' ' ' ' ' ' [ [ @.u u ",
"5 5 R [ [ [ [ [ [ [ [ [ [ [ [ [ [ [ [ [  . .< 9 9 n ] ] ' ' ' ' [ ' ' ' ' ' ' ' ' ' ' [ [ @.u u ",
"5 5 z v v v v m v v v v v v v v v v V G  . ., 9 9 f v v v v v v v v v v M M M M M M M N N X.u u ",
"5 5 z v v v v v v v v v v v v v v v N N  . ., 9 9 f v v b b b b M b b b b b b b b b b N N o.u u ",
"5 5 z v v v b b v v v v v v v v v v V V  . ., 9 9 f v v b b b b M b b b b b b b b b b N N o.u u ",
"5 5 z v v v b b v v v v v v v v v b B V  . ., 9 9 f b b b b b b b b b b M b b b b b b B B o.u u ",
"5 5 z v v b b b b b b v v v v v v v B V  . ., 9 9 f b b b b b b M b b b b b b b b b b B B O.u u ",
"5 5 t t y t y y y y y t t t t t t t y y p p @ 5 5 t t t t t t t t t t t t t t t t t t t t p , , ",
"# # $ $ $ $ $ $ % % $ $ $ $ $ $ $ $ $ $ $ $ . # # % % % % % % % % % % % % % % % % % % % % % O O ",
"# # $ $ $ # # # # @ # # # # # # # # # # $ $ . # # % % % % % # # # # # # # # # # # # # % % % O O "
};
